<svg width="106" height="48" viewBox="0 0 106 48" fill="none" xmlns="http://www.w3.org/2000/svg">
<path d="M47 24C46.1667 24 45.4583 23.7083 44.875 23.125C44.2917 22.5417 44 21.8333 44 21V18H47V4L48.5 5.5L50 4L51.5 5.5L53 4L54.5 5.5L56 4L57.5 5.5L59 4L60.5 5.5L62 4V21C62 21.8333 61.7083 22.5417 61.125 23.125C60.5417 23.7083 59.8333 24 59 24H47ZM59 22C59.2833 22 59.5208 21.9042 59.7125 21.7125C59.9042 21.5208 60 21.2833 60 21V7H49V18H58V21C58 21.2833 58.0958 21.5208 58.2875 21.7125C58.4792 21.9042 58.7167 22 59 22ZM50 11V9H56V11H50ZM50 14V12H56V14H50ZM58 11C57.7167 11 57.4792 10.9042 57.2875 10.7125C57.0958 10.5208 57 10.2833 57 10C57 9.71667 57.0958 9.47917 57.2875 9.2875C57.4792 9.09583 57.7167 9 58 9C58.2833 9 58.5208 9.09583 58.7125 9.2875C58.9042 9.47917 59 9.71667 59 10C59 10.2833 58.9042 10.5208 58.7125 10.7125C58.5208 10.9042 58.2833 11 58 11ZM58 14C57.7167 14 57.4792 13.9042 57.2875 13.7125C57.0958 13.5208 57 13.2833 57 13C57 12.7167 57.0958 12.4792 57.2875 12.2875C57.4792 12.0958 57.7167 12 58 12C58.2833 12 58.5208 12.0958 58.7125 12.2875C58.9042 12.4792 59 12.7167 59 13C59 13.2833 58.9042 13.5208 58.7125 13.7125C58.5208 13.9042 58.2833 14 58 14ZM47 22H56V20H46V21C46 21.2833 46.0958 21.5208 46.2875 21.7125C46.4792 21.9042 46.7167 22 47 22ZM46 22C46 22 46 21.9042 46 21.7125C46 21.5208 46 21.2833 46 21V20V22Z" fill="#515F78"/>
<path d="M24.924 40V31.24H27.612C28.46 31.24 29.132 31.444 29.628 31.852C30.124 32.252 30.372 32.8 30.372 33.496C30.372 33.888 30.284 34.228 30.108 34.516C29.932 34.804 29.692 35.028 29.388 35.188C29.092 35.348 28.748 35.428 28.356 35.428V35.38C28.78 35.372 29.156 35.452 29.484 35.62C29.82 35.78 30.084 36.02 30.276 36.34C30.476 36.66 30.576 37.048 30.576 37.504C30.576 38.008 30.46 38.448 30.228 38.824C29.996 39.2 29.668 39.492 29.244 39.7C28.828 39.9 28.328 40 27.744 40H24.924ZM26.388 38.752H27.648C28.088 38.752 28.432 38.636 28.68 38.404C28.936 38.164 29.064 37.84 29.064 37.432C29.064 37.024 28.936 36.696 28.68 36.448C28.432 36.192 28.088 36.064 27.648 36.064H26.388V38.752ZM26.388 34.852H27.588C27.988 34.852 28.3 34.748 28.524 34.54C28.756 34.324 28.872 34.032 28.872 33.664C28.872 33.296 28.756 33.008 28.524 32.8C28.3 32.592 27.988 32.488 27.588 32.488H26.388V34.852ZM34.7953 40.108C34.2353 40.108 33.7473 40.004 33.3313 39.796C32.9233 39.58 32.6033 39.28 32.3713 38.896C32.1473 38.504 32.0353 38.044 32.0353 37.516V35.884C32.0353 35.356 32.1473 34.9 32.3713 34.516C32.6033 34.124 32.9233 33.824 33.3313 33.616C33.7473 33.4 34.2353 33.292 34.7953 33.292C35.3633 33.292 35.8513 33.4 36.2593 33.616C36.6673 33.824 36.9833 34.124 37.2073 34.516C37.4393 34.9 37.5553 35.352 37.5553 35.872V37.516C37.5553 38.044 37.4393 38.504 37.2073 38.896C36.9833 39.28 36.6673 39.58 36.2593 39.796C35.8513 40.004 35.3633 40.108 34.7953 40.108ZM34.7953 38.8C35.1953 38.8 35.5033 38.692 35.7193 38.476C35.9433 38.252 36.0553 37.932 36.0553 37.516V35.884C36.0553 35.46 35.9433 35.14 35.7193 34.924C35.5033 34.708 35.1953 34.6 34.7953 34.6C34.4033 34.6 34.0953 34.708 33.8713 34.924C33.6473 35.14 33.5353 35.46 33.5353 35.884V37.516C33.5353 37.932 33.6473 38.252 33.8713 38.476C34.0953 38.692 34.4033 38.8 34.7953 38.8ZM41.9906 40.108C41.4306 40.108 40.9426 40.004 40.5266 39.796C40.1186 39.58 39.7986 39.28 39.5666 38.896C39.3426 38.504 39.2306 38.044 39.2306 37.516V35.884C39.2306 35.356 39.3426 34.9 39.5666 34.516C39.7986 34.124 40.1186 33.824 40.5266 33.616C40.9426 33.4 41.4306 33.292 41.9906 33.292C42.5586 33.292 43.0466 33.4 43.4546 33.616C43.8626 33.824 44.1786 34.124 44.4026 34.516C44.6346 34.9 44.7506 35.352 44.7506 35.872V37.516C44.7506 38.044 44.6346 38.504 44.4026 38.896C44.1786 39.28 43.8626 39.58 43.4546 39.796C43.0466 40.004 42.5586 40.108 41.9906 40.108ZM41.9906 38.8C42.3906 38.8 42.6986 38.692 42.9146 38.476C43.1386 38.252 43.2506 37.932 43.2506 37.516V35.884C43.2506 35.46 43.1386 35.14 42.9146 34.924C42.6986 34.708 42.3906 34.6 41.9906 34.6C41.5986 34.6 41.2906 34.708 41.0666 34.924C40.8426 35.14 40.7306 35.46 40.7306 35.884V37.516C40.7306 37.932 40.8426 38.252 41.0666 38.476C41.2906 38.692 41.5986 38.8 41.9906 38.8ZM46.5459 40V31.24H48.0459V35.992H49.0899L50.6979 33.4H52.3779L50.3859 36.592L52.4139 40H50.6979L49.0899 37.264H48.0459V40H46.5459ZM53.6933 40V38.632H55.9973V34.756H53.9933V33.4H57.4373V38.632H59.4773V40H53.6933ZM56.5973 32.296C56.2933 32.296 56.0533 32.22 55.8773 32.068C55.7013 31.908 55.6133 31.696 55.6133 31.432C55.6133 31.168 55.7013 30.96 55.8773 30.808C56.0533 30.648 56.2933 30.568 56.5973 30.568C56.9013 30.568 57.1413 30.648 57.3173 30.808C57.4933 30.96 57.5813 31.168 57.5813 31.432C57.5813 31.696 57.4933 31.908 57.3173 32.068C57.1413 32.22 56.9013 32.296 56.5973 32.296ZM60.9006 40V33.4H62.3646V34.66H62.7726L62.3646 35.008C62.3646 34.464 62.5206 34.04 62.8326 33.736C63.1526 33.432 63.5886 33.28 64.1406 33.28C64.7886 33.28 65.3046 33.496 65.6886 33.928C66.0806 34.36 66.2766 34.94 66.2766 35.668V40H64.7766V35.824C64.7766 35.424 64.6726 35.116 64.4646 34.9C64.2566 34.684 63.9646 34.576 63.5886 34.576C63.2206 34.576 62.9286 34.688 62.7126 34.912C62.5046 35.136 62.4006 35.456 62.4006 35.872V40H60.9006ZM68.9959 42.16V40.912H70.9519C71.2879 40.912 71.5399 40.828 71.7079 40.66C71.8759 40.5 71.9599 40.268 71.9599 39.964V39.472L71.9839 38.236H71.6599L71.9839 37.912C71.9839 38.448 71.8239 38.868 71.5039 39.172C71.1919 39.468 70.7679 39.616 70.2319 39.616C69.5599 39.616 69.0239 39.388 68.6239 38.932C68.2319 38.476 68.0359 37.86 68.0359 37.084V35.8C68.0359 35.032 68.2319 34.42 68.6239 33.964C69.0239 33.508 69.5599 33.28 70.2319 33.28C70.7679 33.28 71.1919 33.432 71.5039 33.736C71.8239 34.032 71.9839 34.448 71.9839 34.984L71.6599 34.66H71.9839L71.9479 33.4H73.4479V40C73.4479 40.664 73.2279 41.188 72.7879 41.572C72.3479 41.964 71.7439 42.16 70.9759 42.16H68.9959ZM70.7359 38.32C71.1199 38.32 71.4159 38.208 71.6239 37.984C71.8399 37.752 71.9479 37.432 71.9479 37.024V35.872C71.9479 35.464 71.8399 35.148 71.6239 34.924C71.4159 34.692 71.1199 34.576 70.7359 34.576C70.3519 34.576 70.0559 34.688 69.8479 34.912C69.6399 35.136 69.5359 35.456 69.5359 35.872V37.024C69.5359 37.44 69.6399 37.76 69.8479 37.984C70.0559 38.208 70.3519 38.32 70.7359 38.32ZM77.7152 40.108C77.2112 40.108 76.7712 40.028 76.3952 39.868C76.0192 39.708 75.7232 39.488 75.5072 39.208C75.2992 38.92 75.1872 38.584 75.1712 38.2H76.6712C76.6872 38.408 76.7872 38.576 76.9712 38.704C77.1632 38.832 77.4112 38.896 77.7152 38.896H78.2432C78.6112 38.896 78.8872 38.824 79.0712 38.68C79.2552 38.536 79.3472 38.34 79.3472 38.092C79.3472 37.86 79.2632 37.68 79.0952 37.552C78.9352 37.416 78.6832 37.328 78.3392 37.288L77.5232 37.168C76.7712 37.064 76.2192 36.864 75.8672 36.568C75.5152 36.272 75.3392 35.828 75.3392 35.236C75.3392 34.62 75.5472 34.144 75.9632 33.808C76.3792 33.464 76.9912 33.292 77.7992 33.292H78.2552C78.9912 33.292 79.5792 33.456 80.0192 33.784C80.4592 34.112 80.6952 34.552 80.7272 35.104H79.2272C79.2032 34.928 79.1032 34.784 78.9272 34.672C78.7592 34.56 78.5352 34.504 78.2552 34.504H77.7992C77.4552 34.504 77.2032 34.568 77.0432 34.696C76.8912 34.816 76.8152 34.996 76.8152 35.236C76.8152 35.46 76.8832 35.628 77.0192 35.74C77.1552 35.844 77.3752 35.92 77.6792 35.968L78.5312 36.088C79.3152 36.2 79.8912 36.412 80.2592 36.724C80.6352 37.028 80.8232 37.48 80.8232 38.08C80.8232 38.72 80.6032 39.22 80.1632 39.58C79.7312 39.932 79.0912 40.108 78.2432 40.108H77.7152Z" fill="#515F78"/>
</svg>
