<svg width="77" height="46" viewBox="0 0 77 46" fill="none" xmlns="http://www.w3.org/2000/svg">
<path d="M32.5 20H35.5V14H41.5V20H44.5V11L38.5 6.5L32.5 11V20ZM30.5 22V10L38.5 4L46.5 10V22H39.5V16H37.5V22H30.5Z" fill="#515F78"/>
<path d="M24.924 38V29.24H26.424V32.756H28.776V29.24H30.276V38H28.776V34.148H26.424V38H24.924ZM34.7953 38.108C34.2353 38.108 33.7473 38.004 33.3313 37.796C32.9233 37.58 32.6033 37.28 32.3713 36.896C32.1473 36.504 32.0353 36.044 32.0353 35.516V33.884C32.0353 33.356 32.1473 32.9 32.3713 32.516C32.6033 32.124 32.9233 31.824 33.3313 31.616C33.7473 31.4 34.2353 31.292 34.7953 31.292C35.3633 31.292 35.8513 31.4 36.2593 31.616C36.6673 31.824 36.9833 32.124 37.2073 32.516C37.4393 32.9 37.5553 33.352 37.5553 33.872V35.516C37.5553 36.044 37.4393 36.504 37.2073 36.896C36.9833 37.28 36.6673 37.58 36.2593 37.796C35.8513 38.004 35.3633 38.108 34.7953 38.108ZM34.7953 36.8C35.1953 36.8 35.5033 36.692 35.7193 36.476C35.9433 36.252 36.0553 35.932 36.0553 35.516V33.884C36.0553 33.46 35.9433 33.14 35.7193 32.924C35.5033 32.708 35.1953 32.6 34.7953 32.6C34.4033 32.6 34.0953 32.708 33.8713 32.924C33.6473 33.14 33.5353 33.46 33.5353 33.884V35.516C33.5353 35.932 33.6473 36.252 33.8713 36.476C34.0953 36.692 34.4033 36.8 34.7953 36.8ZM39.0146 38V31.4H40.2386V32.288H40.4906L40.2866 32.504C40.2866 32.136 40.3906 31.84 40.5986 31.616C40.8066 31.392 41.0746 31.28 41.4026 31.28C41.7546 31.28 42.0266 31.424 42.2186 31.712C42.4186 32 42.5186 32.388 42.5186 32.876L42.2546 32.288H42.6626L42.5066 32.504C42.5066 32.136 42.6106 31.84 42.8186 31.616C43.0266 31.392 43.3026 31.28 43.6466 31.28C44.0546 31.28 44.3786 31.432 44.6186 31.736C44.8586 32.04 44.9786 32.452 44.9786 32.972V38H43.6586V33.032C43.6586 32.816 43.6106 32.648 43.5146 32.528C43.4186 32.4 43.2786 32.336 43.0946 32.336C42.9186 32.336 42.7786 32.396 42.6746 32.516C42.5786 32.636 42.5306 32.808 42.5306 33.032V38H41.4506V33.032C41.4506 32.808 41.4026 32.636 41.3066 32.516C41.2106 32.396 41.0706 32.336 40.8866 32.336C40.7026 32.336 40.5626 32.396 40.4666 32.516C40.3786 32.636 40.3346 32.808 40.3346 33.032V38H39.0146ZM49.1979 38.12C48.6379 38.12 48.1499 38.012 47.7339 37.796C47.3179 37.58 46.9939 37.28 46.7619 36.896C46.5379 36.504 46.4259 36.048 46.4259 35.528V33.872C46.4259 33.352 46.5379 32.9 46.7619 32.516C46.9939 32.124 47.3179 31.82 47.7339 31.604C48.1499 31.388 48.6379 31.28 49.1979 31.28C49.7499 31.28 50.2299 31.388 50.6379 31.604C51.0539 31.82 51.3739 32.124 51.5979 32.516C51.8299 32.9 51.9459 33.352 51.9459 33.872V35.06H47.8779V35.528C47.8779 35.992 47.9899 36.344 48.2139 36.584C48.4379 36.816 48.7699 36.932 49.2099 36.932C49.5459 36.932 49.8179 36.876 50.0259 36.764C50.2339 36.644 50.3659 36.472 50.4219 36.248H51.8979C51.7859 36.816 51.4819 37.272 50.9859 37.616C50.4979 37.952 49.9019 38.12 49.1979 38.12ZM50.4939 34.22V33.86C50.4939 33.404 50.3859 33.056 50.1699 32.816C49.9539 32.568 49.6299 32.444 49.1979 32.444C48.7659 32.444 48.4379 32.568 48.2139 32.816C47.9899 33.064 47.8779 33.416 47.8779 33.872V34.124L50.6019 34.1L50.4939 34.22Z" fill="#515F78"/>
</svg>
