<svg width="167" height="22" viewBox="0 0 167 22" fill="none" xmlns="http://www.w3.org/2000/svg">
<path d="M12.4041 16.38C12.8334 16.38 13.2067 16.5387 13.5241 16.856C13.8414 17.1733 14.0001 17.5467 14.0001 17.976V19.404C14.0001 19.8333 13.8414 20.2067 13.5241 20.524C13.2067 20.8413 12.8334 21 12.4041 21H1.59605C1.16672 21 0.793388 20.8413 0.476055 20.524C0.158722 20.2067 5.48661e-05 19.8333 5.48661e-05 19.404V2.156C5.48661e-05 1.72667 0.158722 1.35333 0.476055 1.036C0.793388 0.718666 1.16672 0.559999 1.59605 0.559999H4.14406C4.57339 0.559999 4.94672 0.718666 5.26405 1.036C5.58139 1.35333 5.74006 1.72667 5.74006 2.156V16.128C5.74006 16.296 5.82406 16.38 5.99205 16.38H12.4041ZM24.8172 15.12V14.952C24.8172 14.784 24.7332 14.7 24.5652 14.7H23.6972C21.8306 14.7 20.8972 15.26 20.8972 16.38C20.8972 17.22 21.3639 17.64 22.2972 17.64C23.0252 17.64 23.6226 17.416 24.0892 16.968C24.5746 16.5013 24.8172 15.8853 24.8172 15.12ZM23.1372 6.16C25.6012 6.16 27.3839 6.608 28.4852 7.504C29.5866 8.4 30.1372 9.81867 30.1372 11.76V19.404C30.1372 19.8333 29.9786 20.2067 29.6612 20.524C29.3439 20.8413 28.9706 21 28.5412 21H26.7772C26.3292 21 25.9466 20.8507 25.6292 20.552C25.3119 20.2347 25.1439 19.852 25.1252 19.404V19.18C25.1252 19.1613 25.1159 19.152 25.0972 19.152C25.0786 19.152 25.0599 19.1613 25.0412 19.18C23.8466 20.58 22.3719 21.28 20.6172 21.28C19.3106 21.28 18.2372 20.8693 17.3972 20.048C16.5572 19.208 16.1372 18.1253 16.1372 16.8C16.1372 13.44 18.6572 11.76 23.6972 11.76H24.5652C24.7332 11.76 24.8172 11.676 24.8172 11.508V11.48C24.8172 10.36 24.1639 9.8 22.8572 9.8C21.7372 9.8 20.2906 9.968 18.5172 10.304C18.1252 10.3787 17.7706 10.2947 17.4532 10.052C17.1359 9.79067 16.9772 9.45467 16.9772 9.044V8.596C16.9772 8.12933 17.1172 7.70933 17.3972 7.336C17.6959 6.96267 18.0692 6.73867 18.5172 6.664C20.3652 6.328 21.9052 6.16 23.1372 6.16ZM41.2169 17.36C41.9449 17.36 42.5236 17.0613 42.9529 16.464C43.3823 15.848 43.5969 14.9333 43.5969 13.72C43.5969 11.2933 42.8036 10.08 41.2169 10.08C40.5823 10.08 40.0223 10.2947 39.5369 10.724C39.0703 11.1533 38.8369 11.6387 38.8369 12.18V15.26C38.8369 15.8013 39.0703 16.2867 39.5369 16.716C40.0223 17.1453 40.5823 17.36 41.2169 17.36ZM43.1769 6.16C44.8943 6.16 46.2569 6.81333 47.2649 8.12C48.2729 9.408 48.7769 11.2747 48.7769 13.72C48.7769 16.1093 48.2449 17.9667 47.1809 19.292C46.1356 20.6173 44.8009 21.28 43.1769 21.28C41.3849 21.28 39.9103 20.58 38.7529 19.18C38.7343 19.1613 38.7156 19.152 38.6969 19.152C38.6783 19.152 38.6689 19.1613 38.6689 19.18V19.404C38.6503 19.852 38.4823 20.2347 38.1649 20.552C37.8476 20.8507 37.4649 21 37.0169 21H35.2529C34.8236 21 34.4503 20.8413 34.1329 20.524C33.8156 20.2067 33.6569 19.8333 33.6569 19.404V1.596C33.6569 1.16667 33.8156 0.793333 34.1329 0.475999C34.4503 0.158665 34.8236 -1.66893e-06 35.2529 -1.66893e-06H37.3809C37.8103 -1.66893e-06 38.1836 0.158665 38.5009 0.475999C38.8183 0.793333 38.9769 1.16667 38.9769 1.596V7.812C38.9769 7.83067 38.9863 7.84 39.0049 7.84C39.0236 7.84 39.0423 7.83067 39.0609 7.812C40.3116 6.71067 41.6836 6.16 43.1769 6.16ZM56.5999 16.772C56.9545 17.3507 57.5239 17.64 58.3079 17.64C59.0919 17.64 59.6612 17.3507 60.0159 16.772C60.3705 16.1747 60.5479 15.1573 60.5479 13.72C60.5479 12.2827 60.3705 11.2747 60.0159 10.696C59.6612 10.0987 59.0919 9.8 58.3079 9.8C57.5239 9.8 56.9545 10.0987 56.5999 10.696C56.2452 11.2747 56.0679 12.2827 56.0679 13.72C56.0679 15.1573 56.2452 16.1747 56.5999 16.772ZM52.7359 8.176C54.0612 6.832 55.9185 6.16 58.3079 6.16C60.6972 6.16 62.5545 6.832 63.8799 8.176C65.2052 9.50133 65.8679 11.3493 65.8679 13.72C65.8679 16.0907 65.2052 17.948 63.8799 19.292C62.5545 20.6173 60.6972 21.28 58.3079 21.28C55.9185 21.28 54.0612 20.6173 52.7359 19.292C51.4105 17.948 50.7479 16.0907 50.7479 13.72C50.7479 11.3493 51.4105 9.50133 52.7359 8.176ZM80.8116 6.44C81.2409 6.44 81.6142 6.59867 81.9316 6.916C82.2489 7.23333 82.4076 7.60667 82.4076 8.036V19.404C82.4076 19.8333 82.2489 20.2067 81.9316 20.524C81.6142 20.8413 81.2409 21 80.8116 21H78.9076C78.4596 21 78.0769 20.8507 77.7596 20.552C77.4422 20.2347 77.2742 19.852 77.2556 19.404V19.18C77.2556 19.1613 77.2462 19.152 77.2276 19.152C77.1902 19.152 77.1716 19.1613 77.1716 19.18C76.0142 20.58 74.5862 21.28 72.8876 21.28C71.2449 21.28 70.0596 20.8227 69.3316 19.908C68.6222 18.9933 68.2676 17.3973 68.2676 15.12V8.036C68.2676 7.60667 68.4262 7.23333 68.7436 6.916C69.0609 6.59867 69.4342 6.44 69.8636 6.44H71.8516C72.2809 6.44 72.6542 6.59867 72.9716 6.916C73.2889 7.23333 73.4476 7.60667 73.4476 8.036V14.84C73.4476 15.6987 73.5596 16.2867 73.7836 16.604C74.0262 16.9213 74.4276 17.08 74.9876 17.08C75.5102 17.08 75.9862 16.8747 76.4156 16.464C76.8636 16.0533 77.0876 15.6053 77.0876 15.12V8.036C77.0876 7.60667 77.2462 7.23333 77.5636 6.916C77.8809 6.59867 78.2542 6.44 78.6836 6.44H80.8116ZM96.0989 6.496C96.5282 6.44 96.9016 6.57067 97.2189 6.888C97.5362 7.20533 97.6949 7.588 97.6949 8.036V8.764C97.6949 9.19333 97.5456 9.56667 97.2469 9.884C96.9482 10.1827 96.5749 10.36 96.1269 10.416C94.6896 10.6027 93.5416 11.144 92.6829 12.04C91.8242 12.9173 91.3949 13.9907 91.3949 15.26V19.404C91.3949 19.8333 91.2362 20.2067 90.9189 20.524C90.6016 20.8413 90.2282 21 89.7989 21H87.5309C87.1016 21 86.7282 20.8413 86.4109 20.524C86.0936 20.2067 85.9349 19.8333 85.9349 19.404V8.036C85.9349 7.60667 86.0936 7.23333 86.4109 6.916C86.7282 6.59867 87.1016 6.44 87.5309 6.44H89.6589C90.0882 6.44 90.4616 6.59867 90.7789 6.916C91.0962 7.23333 91.2549 7.60667 91.2549 8.036V9.212C91.2549 9.23067 91.2642 9.24 91.2829 9.24C91.3016 9.24 91.3202 9.23067 91.3389 9.212C92.5149 7.66267 94.1016 6.75733 96.0989 6.496ZM107.673 17.08C108.793 17.08 109.605 16.8747 110.109 16.464C110.632 16.0533 110.893 15.4187 110.893 14.56C110.893 13.16 109.867 12.46 107.813 12.46H106.665C106.497 12.46 106.413 12.544 106.413 12.712V16.688C106.413 16.856 106.488 16.9587 106.637 16.996C106.973 17.052 107.319 17.08 107.673 17.08ZM106.413 4.872V8.288C106.413 8.456 106.497 8.54 106.665 8.54H107.253C109.4 8.54 110.473 7.84 110.473 6.44C110.473 5.13333 109.54 4.48 107.673 4.48C107.319 4.48 106.973 4.508 106.637 4.564C106.488 4.60133 106.413 4.704 106.413 4.872ZM111.341 10.248C112.779 10.4347 113.927 10.9853 114.785 11.9C115.644 12.8147 116.073 13.888 116.073 15.12C116.073 17.2293 115.383 18.788 114.001 19.796C112.639 20.7853 110.436 21.28 107.393 21.28C105.844 21.28 104.229 21.2053 102.549 21.056C102.101 21.0187 101.719 20.832 101.401 20.496C101.103 20.1413 100.953 19.7307 100.953 19.264V2.296C100.953 1.848 101.103 1.44667 101.401 1.092C101.7 0.737333 102.073 0.541332 102.521 0.503999C104.108 0.354666 105.639 0.28 107.113 0.28C112.713 0.28 115.513 2.05333 115.513 5.6C115.513 6.79467 115.131 7.812 114.365 8.652C113.619 9.47333 112.611 9.98667 111.341 10.192C111.323 10.192 111.313 10.2013 111.313 10.22C111.313 10.2387 111.323 10.248 111.341 10.248ZM126.591 15.12V14.952C126.591 14.784 126.507 14.7 126.339 14.7H125.471C123.604 14.7 122.671 15.26 122.671 16.38C122.671 17.22 123.137 17.64 124.071 17.64C124.799 17.64 125.396 17.416 125.863 16.968C126.348 16.5013 126.591 15.8853 126.591 15.12ZM124.911 6.16C127.375 6.16 129.157 6.608 130.259 7.504C131.36 8.4 131.911 9.81867 131.911 11.76V19.404C131.911 19.8333 131.752 20.2067 131.435 20.524C131.117 20.8413 130.744 21 130.315 21H128.551C128.103 21 127.72 20.8507 127.403 20.552C127.085 20.2347 126.917 19.852 126.899 19.404V19.18C126.899 19.1613 126.889 19.152 126.871 19.152C126.852 19.152 126.833 19.1613 126.815 19.18C125.62 20.58 124.145 21.28 122.391 21.28C121.084 21.28 120.011 20.8693 119.171 20.048C118.331 19.208 117.911 18.1253 117.911 16.8C117.911 13.44 120.431 11.76 125.471 11.76H126.339C126.507 11.76 126.591 11.676 126.591 11.508V11.48C126.591 10.36 125.937 9.8 124.631 9.8C123.511 9.8 122.064 9.968 120.291 10.304C119.899 10.3787 119.544 10.2947 119.227 10.052C118.909 9.79067 118.751 9.45467 118.751 9.044V8.596C118.751 8.12933 118.891 7.70933 119.171 7.336C119.469 6.96267 119.843 6.73867 120.291 6.664C122.139 6.328 123.679 6.16 124.911 6.16ZM142.99 17.36C143.718 17.36 144.297 17.0613 144.726 16.464C145.156 15.848 145.37 14.9333 145.37 13.72C145.37 11.2933 144.577 10.08 142.99 10.08C142.356 10.08 141.796 10.2947 141.31 10.724C140.844 11.1533 140.61 11.6387 140.61 12.18V15.26C140.61 15.8013 140.844 16.2867 141.31 16.716C141.796 17.1453 142.356 17.36 142.99 17.36ZM144.95 6.16C146.668 6.16 148.03 6.81333 149.038 8.12C150.046 9.408 150.55 11.2747 150.55 13.72C150.55 16.1093 150.018 17.9667 148.954 19.292C147.909 20.6173 146.574 21.28 144.95 21.28C143.158 21.28 141.684 20.58 140.526 19.18C140.508 19.1613 140.489 19.152 140.47 19.152C140.452 19.152 140.442 19.1613 140.442 19.18V19.404C140.424 19.852 140.256 20.2347 139.938 20.552C139.621 20.8507 139.238 21 138.79 21H137.026C136.597 21 136.224 20.8413 135.906 20.524C135.589 20.2067 135.43 19.8333 135.43 19.404V1.596C135.43 1.16667 135.589 0.793333 135.906 0.475999C136.224 0.158665 136.597 -1.66893e-06 137.026 -1.66893e-06H139.154C139.584 -1.66893e-06 139.957 0.158665 140.274 0.475999C140.592 0.793333 140.75 1.16667 140.75 1.596V7.812C140.75 7.83067 140.76 7.84 140.778 7.84C140.797 7.84 140.816 7.83067 140.834 7.812C142.085 6.71067 143.457 6.16 144.95 6.16ZM161.208 15.12V14.952C161.208 14.784 161.124 14.7 160.956 14.7H160.088C158.221 14.7 157.288 15.26 157.288 16.38C157.288 17.22 157.755 17.64 158.688 17.64C159.416 17.64 160.013 17.416 160.48 16.968C160.965 16.5013 161.208 15.8853 161.208 15.12ZM159.528 6.16C161.992 6.16 163.775 6.608 164.876 7.504C165.977 8.4 166.528 9.81867 166.528 11.76V19.404C166.528 19.8333 166.369 20.2067 166.052 20.524C165.735 20.8413 165.361 21 164.932 21H163.168C162.72 21 162.337 20.8507 162.02 20.552C161.703 20.2347 161.535 19.852 161.516 19.404V19.18C161.516 19.1613 161.507 19.152 161.488 19.152C161.469 19.152 161.451 19.1613 161.432 19.18C160.237 20.58 158.763 21.28 157.008 21.28C155.701 21.28 154.628 20.8693 153.788 20.048C152.948 19.208 152.528 18.1253 152.528 16.8C152.528 13.44 155.048 11.76 160.088 11.76H160.956C161.124 11.76 161.208 11.676 161.208 11.508V11.48C161.208 10.36 160.555 9.8 159.248 9.8C158.128 9.8 156.681 9.968 154.908 10.304C154.516 10.3787 154.161 10.2947 153.844 10.052C153.527 9.79067 153.368 9.45467 153.368 9.044V8.596C153.368 8.12933 153.508 7.70933 153.788 7.336C154.087 6.96267 154.46 6.73867 154.908 6.664C156.756 6.328 158.296 6.16 159.528 6.16Z" fill="#FF5404"/>
</svg>
