<svg width="19" height="21" viewBox="0 0 19 21" fill="none" xmlns="http://www.w3.org/2000/svg">
<path fill-rule="evenodd" clip-rule="evenodd" d="M5.9375 5.25C5.9375 4.41457 6.31283 3.61335 6.98093 3.02261C7.64903 2.43187 8.55517 2.1 9.5 2.1C10.4448 2.1 11.351 2.43187 12.0191 3.02261C12.6872 3.61335 13.0625 4.41457 13.0625 5.25V7.35H5.9375V5.25ZM3.5625 7.35V5.25C3.5625 3.85761 4.18806 2.52226 5.30155 1.53769C6.41505 0.553123 7.92528 0 9.5 0C11.0747 0 12.5849 0.553123 13.6984 1.53769C14.8119 2.52226 15.4375 3.85761 15.4375 5.25V7.35H17.8125C18.1274 7.35 18.4295 7.46062 18.6522 7.65754C18.8749 7.85445 19 8.12152 19 8.4V17.85C19 18.6854 18.6247 19.4866 17.9566 20.0774C17.2885 20.6681 16.3823 21 15.4375 21H3.5625C2.61767 21 1.71153 20.6681 1.04343 20.0774C0.375334 19.4866 0 18.6854 0 17.85V8.4C0 8.12152 0.125111 7.85445 0.347811 7.65754C0.57051 7.46062 0.872555 7.35 1.1875 7.35H3.5625ZM10.6875 14.175C10.6875 13.7573 10.8752 13.3567 11.2092 13.0613C11.5433 12.7659 11.9963 12.6 12.4688 12.6H12.4806C12.953 12.6 13.4061 12.7659 13.7402 13.0613C14.0742 13.3567 14.2619 13.7573 14.2619 14.175V14.1855C14.2619 14.6032 14.0742 15.0038 13.7402 15.2992C13.4061 15.5946 12.953 15.7605 12.4806 15.7605H12.4688C11.9963 15.7605 11.5433 15.5946 11.2092 15.2992C10.8752 15.0038 10.6875 14.6032 10.6875 14.1855V14.175Z" fill="#FF5404"/>
</svg>
