<svg width="46" height="46" viewBox="0 0 46 46" fill="none" xmlns="http://www.w3.org/2000/svg">
<path d="M28.5 32.3C27.7083 32.3 27.0354 32.023 26.4812 31.4688C25.9271 30.9146 25.65 30.2417 25.65 29.45C25.65 29.355 25.6737 29.1334 25.7212 28.785L19.0475 24.89C18.7942 25.1275 18.5012 25.3136 18.1687 25.4482C17.8363 25.5828 17.48 25.65 17.1 25.65C16.3083 25.65 15.6354 25.373 15.0812 24.8188C14.5271 24.2646 14.25 23.5917 14.25 22.8C14.25 22.0084 14.5271 21.3355 15.0812 20.7813C15.6354 20.2271 16.3083 19.95 17.1 19.95C17.48 19.95 17.8363 20.0173 18.1687 20.1519C18.5012 20.2865 18.7942 20.4725 19.0475 20.71L25.7212 16.815C25.6896 16.7042 25.6698 16.5973 25.6619 16.4944C25.654 16.3915 25.65 16.2767 25.65 16.15C25.65 15.3584 25.9271 14.6855 26.4812 14.1313C27.0354 13.5771 27.7083 13.3 28.5 13.3C29.2917 13.3 29.9646 13.5771 30.5187 14.1313C31.0729 14.6855 31.35 15.3584 31.35 16.15C31.35 16.9417 31.0729 17.6146 30.5187 18.1688C29.9646 18.723 29.2917 19 28.5 19C28.12 19 27.7638 18.9328 27.4312 18.7982C27.0987 18.6636 26.8058 18.4775 26.5525 18.24L19.8788 22.135C19.9104 22.2459 19.9302 22.3528 19.9381 22.4557C19.946 22.5586 19.95 22.6734 19.95 22.8C19.95 22.9267 19.946 23.0415 19.9381 23.1444C19.9302 23.2473 19.9104 23.3542 19.8788 23.465L26.5525 27.36C26.8058 27.1225 27.0987 26.9365 27.4312 26.8019C27.7638 26.6673 28.12 26.6 28.5 26.6C29.2917 26.6 29.9646 26.8771 30.5187 27.4313C31.0729 27.9855 31.35 28.6584 31.35 29.45C31.35 30.2417 31.0729 30.9146 30.5187 31.4688C29.9646 32.023 29.2917 32.3 28.5 32.3ZM28.5 30.4C28.7692 30.4 28.9948 30.309 29.1769 30.1269C29.359 29.9448 29.45 29.7192 29.45 29.45C29.45 29.1809 29.359 28.9553 29.1769 28.7732C28.9948 28.5911 28.7692 28.5 28.5 28.5C28.2308 28.5 28.0052 28.5911 27.8231 28.7732C27.641 28.9553 27.55 29.1809 27.55 29.45C27.55 29.7192 27.641 29.9448 27.8231 30.1269C28.0052 30.309 28.2308 30.4 28.5 30.4ZM17.1 23.75C17.3692 23.75 17.5948 23.659 17.7769 23.4769C17.959 23.2948 18.05 23.0692 18.05 22.8C18.05 22.5309 17.959 22.3053 17.7769 22.1232C17.5948 21.9411 17.3692 21.85 17.1 21.85C16.8308 21.85 16.6052 21.9411 16.4231 22.1232C16.241 22.3053 16.15 22.5309 16.15 22.8C16.15 23.0692 16.241 23.2948 16.4231 23.4769C16.6052 23.659 16.8308 23.75 17.1 23.75ZM28.5 17.1C28.7692 17.1 28.9948 17.009 29.1769 16.8269C29.359 16.6448 29.45 16.4192 29.45 16.15C29.45 15.8809 29.359 15.6553 29.1769 15.4732C28.9948 15.2911 28.7692 15.2 28.5 15.2C28.2308 15.2 28.0052 15.2911 27.8231 15.4732C27.641 15.6553 27.55 15.8809 27.55 16.15C27.55 16.4192 27.641 16.6448 27.8231 16.8269C28.0052 17.009 28.2308 17.1 28.5 17.1Z" fill="#FF5404"/>
</svg>
