<svg width="92" height="46" viewBox="0 0 92 46" fill="none" xmlns="http://www.w3.org/2000/svg">
<path d="M38.5 20V6C38.5 6 38.5 6.37083 38.5 7.1125C38.5 7.85417 38.5 8.81667 38.5 10V16C38.5 17.1833 38.5 18.1458 38.5 18.8875C38.5 19.6292 38.5 20 38.5 20ZM38.5 22C37.95 22 37.4792 21.8042 37.0875 21.4125C36.6958 21.0208 36.5 20.55 36.5 20V6C36.5 5.45 36.6958 4.97917 37.0875 4.5875C37.4792 4.19583 37.95 4 38.5 4H52.5C53.05 4 53.5208 4.19583 53.9125 4.5875C54.3042 4.97917 54.5 5.45 54.5 6V8.5H52.5V6H38.5V20H52.5V17.5H54.5V20C54.5 20.55 54.3042 21.0208 53.9125 21.4125C53.5208 21.8042 53.05 22 52.5 22H38.5ZM46.5 18C45.95 18 45.4792 17.8042 45.0875 17.4125C44.6958 17.0208 44.5 16.55 44.5 16V10C44.5 9.45 44.6958 8.97917 45.0875 8.5875C45.4792 8.19583 45.95 8 46.5 8H53.5C54.05 8 54.5208 8.19583 54.9125 8.5875C55.3042 8.97917 55.5 9.45 55.5 10V16C55.5 16.55 55.3042 17.0208 54.9125 17.4125C54.5208 17.8042 54.05 18 53.5 18H46.5ZM53.5 16V10H46.5V16H53.5ZM49.5 14.5C49.9167 14.5 50.2708 14.3542 50.5625 14.0625C50.8542 13.7708 51 13.4167 51 13C51 12.5833 50.8542 12.2292 50.5625 11.9375C50.2708 11.6458 49.9167 11.5 49.5 11.5C49.0833 11.5 48.7292 11.6458 48.4375 11.9375C48.1458 12.2292 48 12.5833 48 13C48 13.4167 48.1458 13.7708 48.4375 14.0625C48.7292 14.3542 49.0833 14.5 49.5 14.5Z" fill="#515F78"/>
<path d="M25.092 38L24.192 29.24H25.488L26.016 35.36C26.032 35.496 26.044 35.664 26.052 35.864C26.068 36.056 26.08 36.252 26.088 36.452C26.104 36.652 26.112 36.828 26.112 36.98C26.128 36.828 26.144 36.652 26.16 36.452C26.176 36.252 26.192 36.056 26.208 35.864C26.232 35.664 26.252 35.496 26.268 35.36L26.988 29.24H28.248L28.92 35.36C28.944 35.496 28.964 35.664 28.98 35.864C29.004 36.056 29.028 36.252 29.052 36.452C29.076 36.652 29.096 36.828 29.112 36.98C29.12 36.828 29.128 36.652 29.136 36.452C29.144 36.252 29.152 36.056 29.16 35.864C29.176 35.664 29.192 35.496 29.208 35.36L29.724 29.24H31.008L30.06 38H28.404L27.756 31.856C27.74 31.704 27.72 31.528 27.696 31.328C27.68 31.12 27.664 30.916 27.648 30.716C27.632 30.508 27.62 30.332 27.612 30.188C27.604 30.332 27.588 30.508 27.564 30.716C27.548 30.916 27.532 31.12 27.516 31.328C27.5 31.528 27.484 31.704 27.468 31.856L26.76 38H25.092ZM34.0633 38.12C33.3833 38.12 32.8473 37.94 32.4553 37.58C32.0633 37.22 31.8673 36.736 31.8673 36.128C31.8673 35.48 32.0833 34.98 32.5153 34.628C32.9473 34.276 33.5593 34.1 34.3513 34.1H35.9953V33.536C35.9953 33.216 35.8913 32.968 35.6833 32.792C35.4753 32.608 35.1913 32.516 34.8313 32.516C34.5033 32.516 34.2313 32.588 34.0153 32.732C33.7993 32.876 33.6713 33.072 33.6313 33.32H32.1673C32.2393 32.696 32.5193 32.2 33.0073 31.832C33.4953 31.464 34.1193 31.28 34.8793 31.28C35.6873 31.28 36.3233 31.484 36.7873 31.892C37.2593 32.292 37.4953 32.836 37.4953 33.524V38H36.0433V36.848H35.8033L36.0433 36.524C36.0433 37.012 35.8633 37.4 35.5033 37.688C35.1433 37.976 34.6633 38.12 34.0633 38.12ZM34.5553 36.992C34.9793 36.992 35.3233 36.884 35.5873 36.668C35.8593 36.452 35.9953 36.172 35.9953 35.828V35.024H34.3753C34.0713 35.024 33.8273 35.112 33.6433 35.288C33.4593 35.464 33.3673 35.696 33.3673 35.984C33.3673 36.296 33.4713 36.544 33.6793 36.728C33.8953 36.904 34.1873 36.992 34.5553 36.992ZM42.9986 38C42.5666 38 42.1866 37.912 41.8586 37.736C41.5386 37.56 41.2866 37.312 41.1026 36.992C40.9186 36.664 40.8266 36.288 40.8266 35.864V30.596H38.7146V29.24H42.3266V35.864C42.3266 36.104 42.3946 36.296 42.5306 36.44C42.6746 36.576 42.8666 36.644 43.1066 36.644H45.0986V38H42.9986ZM50.1939 38C49.7619 38 49.3819 37.912 49.0539 37.736C48.7339 37.56 48.4819 37.312 48.2979 36.992C48.1139 36.664 48.0219 36.288 48.0219 35.864V30.596H45.9099V29.24H49.5219V35.864C49.5219 36.104 49.5899 36.296 49.7259 36.44C49.8699 36.576 50.0619 36.644 50.3019 36.644H52.2939V38H50.1939ZM56.3933 38.12C55.8333 38.12 55.3453 38.012 54.9293 37.796C54.5133 37.58 54.1893 37.28 53.9573 36.896C53.7333 36.504 53.6213 36.048 53.6213 35.528V33.872C53.6213 33.352 53.7333 32.9 53.9573 32.516C54.1893 32.124 54.5133 31.82 54.9293 31.604C55.3453 31.388 55.8333 31.28 56.3933 31.28C56.9453 31.28 57.4253 31.388 57.8333 31.604C58.2493 31.82 58.5693 32.124 58.7933 32.516C59.0253 32.9 59.1413 33.352 59.1413 33.872V35.06H55.0733V35.528C55.0733 35.992 55.1853 36.344 55.4093 36.584C55.6333 36.816 55.9653 36.932 56.4053 36.932C56.7413 36.932 57.0133 36.876 57.2213 36.764C57.4293 36.644 57.5613 36.472 57.6173 36.248H59.0933C58.9813 36.816 58.6773 37.272 58.1813 37.616C57.6933 37.952 57.0973 38.12 56.3933 38.12ZM57.6893 34.22V33.86C57.6893 33.404 57.5813 33.056 57.3653 32.816C57.1493 32.568 56.8253 32.444 56.3933 32.444C55.9613 32.444 55.6333 32.568 55.4093 32.816C55.1853 33.064 55.0733 33.416 55.0733 33.872V34.124L57.7973 34.1L57.6893 34.22ZM64.2966 38C63.6646 38 63.1686 37.824 62.8086 37.472C62.4566 37.12 62.2806 36.636 62.2806 36.02V32.756H60.4926V31.4H62.2806V29.54H63.7926V31.4H66.3246V32.756H63.7926V36.02C63.7926 36.436 63.9966 36.644 64.4046 36.644H66.2046V38H64.2966Z" fill="#515F78"/>
</svg>
